<svg xmlns="http://www.w3.org/2000/svg" fill="none" viewBox="0 0 60 60"><path fill="#fff" fill-rule="evenodd" d="M13.705 16.579c0-.872.707-1.579 1.58-1.579h2.173c2.24 0 4.175 1.57 4.636 3.762l.205.975h19.258a4.737 4.737 0 0 1 4.672 5.515l-.592 3.551a4.737 4.737 0 0 1-3.935 3.9L25.71 35.226l.1.33a4.726 4.726 0 0 1 4.057 1.55h7.15a4.737 4.737 0 1 1-1.206 3.158h-4.737a4.737 4.737 0 1 1-8.136-3.298l-.776-2.56a1.559 1.559 0 0 1-.034-.133l-3.125-14.86a1.579 1.579 0 0 0-1.545-1.254h-2.174a1.579 1.579 0 0 1-1.579-1.58ZM24.91 32.154l-1.947-9.26h18.594c.975 0 1.718.877 1.557 1.84l-.592 3.55a1.579 1.579 0 0 1-1.311 1.3l-16.301 2.57Zm1.427 6.53a1.578 1.578 0 0 0-1.579 1.579 1.579 1.579 0 1 0 1.579-1.579Zm14.21 0a1.578 1.578 0 1 0 0 3.158 1.579 1.579 0 1 0 0-3.158Z" clip-rule="evenodd"/></svg>