<svg xmlns="http://www.w3.org/2000/svg" fill="none" viewBox="0 0 45 46"><path fill="#fff" fill-rule="evenodd" d="M3.75 9.875A5.625 5.625 0 0 1 9.375 4.25H15a5.625 5.625 0 0 1 5.625 5.625v1.875A5.625 5.625 0 0 1 15 17.375H9.375A5.625 5.625 0 0 1 3.75 11.75V9.875ZM9.375 8C8.339 8 7.5 8.84 7.5 9.875v1.875c0 1.036.84 1.875 1.875 1.875H15c1.035 0 1.875-.84 1.875-1.875V9.875C16.875 8.839 16.035 8 15 8H9.375Zm15 1.875A5.625 5.625 0 0 1 30 4.25h5.625a5.625 5.625 0 0 1 5.625 5.625v9.375a5.625 5.625 0 0 1-5.625 5.625H30a5.625 5.625 0 0 1-5.625-5.625V9.875ZM30 8c-1.035 0-1.875.84-1.875 1.875v9.375c0 1.035.84 1.875 1.875 1.875h5.625c1.035 0 1.875-.84 1.875-1.875V9.875C37.5 8.839 36.66 8 35.625 8H30ZM3.75 26.75a5.625 5.625 0 0 1 5.625-5.625H15a5.625 5.625 0 0 1 5.625 5.625v9.375A5.625 5.625 0 0 1 15 41.75H9.375a5.625 5.625 0 0 1-5.625-5.625V26.75Zm5.625-1.875c-1.036 0-1.875.84-1.875 1.875v9.375C7.5 37.16 8.34 38 9.375 38H15c1.035 0 1.875-.84 1.875-1.875V26.75c0-1.035-.84-1.875-1.875-1.875H9.375Zm15 9.375A5.625 5.625 0 0 1 30 28.625h5.625a5.625 5.625 0 0 1 5.625 5.625v1.875a5.625 5.625 0 0 1-5.625 5.625H30a5.625 5.625 0 0 1-5.625-5.625V34.25ZM30 32.375c-1.035 0-1.875.84-1.875 1.875v1.875c0 1.035.84 1.875 1.875 1.875h5.625c1.035 0 1.875-.84 1.875-1.875V34.25c0-1.035-.84-1.875-1.875-1.875H30Z" clip-rule="evenodd"/></svg>
