<svg width="60" height="60" viewBox="0 0 60 60" fill="none" xmlns="http://www.w3.org/2000/svg">
<path d="M31.4814 15V16.5789H41.8513V19.7368H31.4814V41.8421H37.407V45H22.593V41.8421H28.5186V19.7368H18.1487V16.5789H28.5186V15H31.4814ZM19.6301 21.8574L23.8196 26.3242C24.8921 27.4658 25.5558 29.0447 25.5558 30.7895C25.5558 34.2789 22.9041 37.1053 19.6301 37.1053C16.3562 37.1053 13.7045 34.2789 13.7045 30.7895C13.7045 29.0447 14.3682 27.4658 15.4407 26.3242L19.6301 21.8574ZM40.3699 21.8574L44.5593 26.3242C45.6318 27.4658 46.2955 29.0447 46.2955 30.7895C46.2955 34.2789 43.6438 37.1053 40.3699 37.1053C37.0959 37.1053 34.4442 34.2789 34.4442 30.7895C34.4442 29.0447 35.1079 27.4658 36.1804 26.3242L40.3699 21.8574ZM19.6301 26.3242L17.5354 28.5568C16.9814 29.1474 16.6673 29.9368 16.6673 30.7895C16.6673 32.5342 17.9932 33.9474 19.6301 33.9474C21.2671 33.9474 22.593 32.5342 22.593 30.7895C22.593 29.9368 22.2789 29.1474 21.7249 28.5568L19.6301 26.3242ZM40.3699 26.3242L38.2751 28.5568C37.7211 29.1474 37.407 29.9368 37.407 30.7895C37.407 32.5342 38.7329 33.9474 40.3699 33.9474C42.0068 33.9474 43.3327 32.5342 43.3327 30.7895C43.3327 29.9368 43.0186 29.1474 42.4646 28.5568L40.3699 26.3242Z" fill="white"/>
</svg>
