<svg width="60" height="60" viewBox="0 0 60 60" fill="none" xmlns="http://www.w3.org/2000/svg">
<path fill-rule="evenodd" clip-rule="evenodd" d="M18.0928 28.5H24.0377C24.2301 24.6902 25.1508 21.1617 26.6313 18.4793C22.1079 19.7998 18.6899 23.7119 18.0928 28.5ZM30 18.7574C28.4498 20.8855 27.2729 24.3478 27.0415 28.5H32.9585C32.727 24.3478 31.5502 20.8855 30 18.7574ZM32.9585 31.5H27.0415C27.273 35.6522 28.4498 39.1145 30 41.2426C31.5502 39.1145 32.727 35.6522 32.9585 31.5ZM26.6313 41.5207C25.1508 38.8383 24.2301 35.3098 24.0377 31.5H18.0928C18.6899 36.2881 22.1079 40.2002 26.6313 41.5207ZM33.3687 41.5207C34.8492 38.8383 35.7699 35.3098 35.9623 31.5H41.9072C41.3101 36.2881 37.8921 40.2002 33.3687 41.5207ZM41.9072 28.5H35.9623C35.7699 24.6902 34.8492 21.1617 33.3687 18.4793C37.8921 19.7998 41.3101 23.7119 41.9072 28.5ZM15 30C15 21.7157 21.7157 15 30 15C38.2843 15 45 21.7157 45 30C45 38.2843 38.2843 45 30 45C21.7157 45 15 38.2843 15 30Z" fill="white"/>
</svg>
