<svg width="30" height="30" viewBox="0 0 30 30" fill="none" xmlns="http://www.w3.org/2000/svg">
<path fill-rule="evenodd" clip-rule="evenodd" d="M21.6964 12.4107C21.6964 7.28236 17.5391 3.125 12.4107 3.125C7.28236 3.125 3.125 7.28236 3.125 12.4107C3.125 17.5391 7.28236 21.6964 12.4107 21.6964C14.5237 21.6964 16.4732 20.9896 18.0333 19.8011L24.7411 26.5089C25.2293 26.997 26.0207 26.997 26.5089 26.5089C26.997 26.0207 26.997 25.2293 26.5089 24.7411L19.8011 18.0333C20.9896 16.4732 21.6964 14.5237 21.6964 12.4107ZM12.4107 5.625C16.1584 5.625 19.1964 8.66307 19.1964 12.4107C19.1964 14.2849 18.4383 15.9796 17.2089 17.2089C15.9796 18.4383 14.2849 19.1964 12.4107 19.1964C8.66307 19.1964 5.625 16.1584 5.625 12.4107C5.625 8.66307 8.66307 5.625 12.4107 5.625Z" fill="#221F1F" fill-opacity="0.7"/>
</svg>
