<svg width="60" height="60" viewBox="0 0 60 60" fill="none" xmlns="http://www.w3.org/2000/svg">
<path fill-rule="evenodd" clip-rule="evenodd" d="M30 18C26.6863 18 24 20.6863 24 24C24 27.3137 26.6863 30 30 30C33.3137 30 36 27.3137 36 24C36 20.6863 33.3137 18 30 18ZM35.4615 31.1541C37.6125 29.5095 39 26.9168 39 24C39 19.0294 34.9706 15 30 15C25.0294 15 21 19.0294 21 24C21 26.9168 22.3875 29.5095 24.5385 31.1541C23.0303 31.8212 21.6428 32.7654 20.4541 33.9541C19.5362 34.872 18.764 35.9085 18.1527 37.0277C17.0245 39.0929 17.4846 41.1986 18.7551 42.6876C19.9782 44.121 21.9375 45 24 45H36C38.0625 45 40.0218 44.121 41.2449 42.6876C42.5154 41.1986 42.9755 39.0929 41.8473 37.0277C41.236 35.9085 40.4638 34.872 39.5459 33.9541C38.3572 32.7654 36.9697 31.8212 35.4615 31.1541ZM30 33C27.2152 33 24.5445 34.1062 22.5754 36.0754C21.8614 36.7894 21.2609 37.5955 20.7854 38.4659C20.325 39.3088 20.4735 40.0797 21.0372 40.7403C21.6483 41.4564 22.7488 42 24 42H36C37.2512 42 38.3517 41.4564 38.9628 40.7403C39.5265 40.0797 39.675 39.3088 39.2146 38.4659C38.7391 37.5955 38.1386 36.7894 37.4246 36.0754C35.4555 34.1062 32.7848 33 30 33Z" fill="white"/>
</svg>
