<svg width="29" height="29" viewBox="0 0 29 29" fill="none" xmlns="http://www.w3.org/2000/svg">
<path d="M5.17856 16.5714L1.49141 21.8536C1.3251 22.1775 1.2471 22.5395 1.26528 22.9032C1.28346 23.2668 1.39719 23.6193 1.59499 23.925C1.78156 24.2235 2.04113 24.4695 2.3492 24.6399C2.65727 24.8102 3.00367 24.8993 3.3557 24.8986H25.6443C25.9963 24.8993 26.3427 24.8102 26.6508 24.6399C26.9588 24.4695 27.2184 24.2235 27.405 23.925C27.5868 23.6101 27.6825 23.2529 27.6825 22.8893C27.6825 22.5257 27.5868 22.1685 27.405 21.8536L23.8214 16.5714" stroke="#000001" stroke-width="2" stroke-linecap="round" stroke-linejoin="round"/>
<path d="M7.24996 4.14282C6.70058 4.14282 6.1737 4.36106 5.78524 4.74953C5.39677 5.138 5.17853 5.66487 5.17853 6.21425V16.5714H23.8214V6.21425C23.8214 5.66487 23.6031 5.138 23.2147 4.74953C22.8262 4.36106 22.2993 4.14282 21.75 4.14282H7.24996Z" stroke="#000001" stroke-width="2" stroke-linecap="round" stroke-linejoin="round"/>
</svg>
