<svg width="29" height="27" viewBox="0 0 29 27" fill="none" xmlns="http://www.w3.org/2000/svg">
<path d="M21.75 16.5274V21.8458C21.75 22.9454 20.8075 23.843 19.6596 23.843H9.34043C8.18043 23.843 7.25 22.9454 7.25 21.8458V5.08277C7.25 3.98319 8.19251 3.08557 9.34043 3.08557H19.6596C20.8196 3.08557 21.75 3.98319 21.75 5.08277V16.9201" stroke="#221F1F" stroke-width="2" stroke-linecap="round" stroke-linejoin="round"/>
<path d="M13.8958 6.54144H15.1041" stroke="#221F1F" stroke-width="2" stroke-linecap="round" stroke-linejoin="round"/>
<path d="M14.5 21.3297C15.1673 21.3297 15.7083 20.8273 15.7083 20.2077C15.7083 19.588 15.1673 19.0856 14.5 19.0856C13.8326 19.0856 13.2916 19.588 13.2916 20.2077C13.2916 20.8273 13.8326 21.3297 14.5 21.3297Z" fill="#221F1F"/>
</svg>
