<svg xmlns="http://www.w3.org/2000/svg" fill="none" viewBox="0 0 282 60"><g clip-path="url(#a)"><path fill="#6A983C" d="M19.402 29.714 8.658 1.323C8.398.675 7.795.243 7.104.243h-5.22a1.639 1.639 0 1 0 0 3.28h4.055l10.356 27.313c.259.647.863 1.079 1.553 1.079.173 0 .389-.044.561-.087.906-.345 1.338-1.294.993-2.114Z"/><path fill="#6A983C" d="M62.075 41.925H24.277c-1.682 0-3.063-1.338-3.063-3.02 0-1.554 1.251-2.891 2.848-2.978l27.27-1.855c2.459-.173 4.487-1.77 5.263-4.1L63.672 8.01a1.61 1.61 0 0 0-.216-1.467 1.656 1.656 0 0 0-1.338-.69H15.734a1.639 1.639 0 1 0 0 3.28h44.054L53.402 28.98a2.646 2.646 0 0 1-2.33 1.812l-27.27 1.855c-3.322.216-5.91 2.977-5.91 6.257 0 3.451 2.847 6.3 6.342 6.3h37.798c.906 0 1.64-.734 1.64-1.64.043-.907-.69-1.64-1.597-1.64ZM24.277 47.491c-1.682 0-3.322.647-4.487 1.855a6.3 6.3 0 0 0-1.855 4.488c0 3.495 2.847 6.343 6.386 6.343 3.538 0 6.385-2.848 6.385-6.343-.043-3.495-2.934-6.343-6.429-6.343Zm0 9.406c-1.726 0-3.106-1.38-3.106-3.063 0-.82.302-1.597.906-2.158.604-.56 1.38-.906 2.2-.906 1.726 0 3.107 1.381 3.107 3.064s-1.424 3.063-3.107 3.063ZM53.23 47.491c-3.538 0-6.386 2.848-6.386 6.343a6.3 6.3 0 0 0 1.855 4.487 6.3 6.3 0 0 0 4.488 1.856c3.495 0 6.386-2.848 6.386-6.343.043-3.495-2.848-6.343-6.343-6.343Zm0 9.406c-.82 0-1.597-.302-2.2-.906a3.071 3.071 0 0 1-.907-2.157c0-1.683 1.38-3.064 3.107-3.064 1.726 0 3.107 1.381 3.107 3.064s-1.424 3.063-3.107 3.063Z"/><path fill="#C8DEB3" d="m78.75 41.348 3.752-5.003c1.154.802 2.501 1.475 4.04 2.02 1.54.545 3.047.818 4.523.818 1.09 0 1.996-.224 2.718-.673.721-.45 1.082-1.01 1.082-1.684 0-.674-.409-1.147-1.227-1.42a13.853 13.853 0 0 0-2.38-.576 673.41 673.41 0 0 0-1.492-.217c-1.925-.32-3.584-.706-4.98-1.155-1.394-.449-2.661-1.25-3.8-2.405-1.138-1.155-1.707-2.742-1.707-4.762 0-3.336 1.21-5.565 3.632-6.687 2.421-1.123 4.85-1.684 7.288-1.684 2.084 0 4.009.305 5.773.914 1.764.61 3.511 1.572 5.243 2.886l-3.752 4.907a22.893 22.893 0 0 0-3.704-1.78 10.907 10.907 0 0 0-3.8-.673c-.803 0-1.58.176-2.334.529-.754.353-1.13.834-1.13 1.443 0 .77.52 1.315 1.563 1.636 1.042.32 2.189.561 3.44.721 2.245.385 4.04.786 5.388 1.203 1.347.417 2.541 1.195 3.584 2.333 1.042 1.139 1.563 2.75 1.563 4.835 0 2.758-.946 4.883-2.838 6.374-1.892 1.491-4.57 2.237-8.034 2.237-4.81 0-8.948-1.379-12.412-4.137Zm35.743-26.868c-.77.754-1.7 1.13-2.791 1.13-1.122 0-2.076-.376-2.862-1.13-.786-.753-1.179-1.675-1.179-2.766 0-1.058.393-1.964 1.179-2.718.786-.753 1.74-1.13 2.862-1.13 1.091 0 2.021.377 2.791 1.13.769.754 1.154 1.66 1.154 2.718 0 1.09-.385 2.013-1.154 2.766Zm-6.399 3.97h7.216v26.41h-7.216V18.45Zm22.755 26.41h-7.216V24.992h-2.983v-6.158h2.983c.128-3.432 1.106-6.045 2.934-7.841 1.828-1.796 4.362-2.694 7.601-2.694.962 0 2.021.144 3.175.433l-.385 5.82a6.511 6.511 0 0 0-1.972-.288c-1.732 0-2.854.433-3.367 1.299-.514.866-.77 1.956-.77 3.271h4.762v6.158h-4.762V44.86Zm19.243-9.43c0 1.123.192 2.061.577 2.815.385.754 1.283 1.13 2.694 1.13.641 0 1.251-.032 1.828-.096v6.062a29.307 29.307 0 0 1-3.223.192c-2.053 0-3.713-.168-4.979-.505-1.267-.337-2.253-.986-2.959-1.948-.705-.962-1.058-2.341-1.058-4.137V24.27h-3.223v-6.302h3.223v-7.072h7.12v7.072h5.291v6.302h-5.291v11.16Zm9.332 5.918 3.753-5.003c1.154.802 2.501 1.475 4.041 2.02 1.539.545 3.046.818 4.522.818 1.09 0 1.996-.224 2.718-.673.721-.45 1.082-1.01 1.082-1.684 0-.674-.409-1.147-1.227-1.42a13.848 13.848 0 0 0-2.381-.576l-1.491-.217c-1.925-.32-3.584-.706-4.979-1.155-1.395-.449-2.662-1.25-3.801-2.405-1.138-1.155-1.708-2.742-1.708-4.762 0-3.336 1.211-5.565 3.632-6.687 2.422-1.123 4.851-1.684 7.289-1.684 2.084 0 4.009.305 5.772.914 1.764.61 3.512 1.572 5.244 2.886l-3.752 4.907a22.927 22.927 0 0 0-3.704-1.78 10.91 10.91 0 0 0-3.801-.673c-.802 0-1.579.176-2.333.529-.754.353-1.131.834-1.131 1.443 0 .77.522 1.315 1.564 1.636 1.042.32 2.189.561 3.44.721 2.245.385 4.04.786 5.387 1.203 1.347.417 2.542 1.195 3.584 2.333 1.043 1.139 1.564 2.75 1.564 4.835 0 2.758-.946 4.883-2.838 6.374-1.893 1.491-4.571 2.237-8.034 2.237-4.811 0-8.948-1.379-12.412-4.137Zm51.258-20.493c1.652 1.956 2.477 4.746 2.477 8.37V44.86h-7.312V29.225c0-1.892-.473-3.255-1.419-4.089-.946-.834-2.189-1.25-3.728-1.25-1.315 0-2.502.52-3.56 1.563-1.058 1.042-1.556 2.846-1.491 5.412V44.86h-7.168V8.443h7.168v12.315c.866-.866 1.956-1.555 3.271-2.068 1.315-.513 2.582-.77 3.8-.77 3.656 0 6.31.978 7.962 2.934Zm15.394 22.778c-2.197-1.235-3.937-2.91-5.22-5.027-1.282-2.117-1.924-4.426-1.924-6.928 0-2.469.642-4.762 1.924-6.879 1.283-2.116 3.023-3.792 5.22-5.027 2.197-1.235 4.594-1.852 7.192-1.852s5.003.617 7.216 1.852 3.969 2.91 5.268 5.027a12.912 12.912 0 0 1 1.948 6.88c0 2.501-.649 4.81-1.948 6.927-1.299 2.116-3.055 3.792-5.268 5.027-2.213 1.235-4.618 1.852-7.216 1.852s-4.995-.617-7.192-1.852Zm3.536-18.425a7.108 7.108 0 0 0-2.646 2.694c-.641 1.139-.962 2.397-.962 3.776 0 1.444.313 2.735.938 3.873a6.984 6.984 0 0 0 2.598 2.694c1.106.658 2.349.986 3.728.986 1.347 0 2.574-.328 3.68-.986a7.113 7.113 0 0 0 2.622-2.718c.641-1.154.962-2.437.962-3.849 0-1.379-.321-2.637-.962-3.776a7.163 7.163 0 0 0-2.622-2.694c-1.106-.657-2.333-.986-3.68-.986a7.106 7.106 0 0 0-3.656.986Zm31.077-4.161c.609-.834 1.659-1.58 3.151-2.237 1.491-.657 3.119-.986 4.883-.986 2.726 0 5.091.61 7.095 1.828a12.074 12.074 0 0 1 4.595 4.979c1.058 2.1 1.587 4.434 1.587 7 0 2.565-.529 4.898-1.587 6.999a12.073 12.073 0 0 1-4.595 4.979c-2.004 1.219-4.369 1.828-7.095 1.828-1.828 0-3.44-.313-4.835-.938-1.395-.626-2.462-1.42-3.199-2.381v11.257h-7.12V18.4h7.12v2.646Zm1.684 15.995c1.314 1.395 3.078 2.093 5.291 2.093 2.245 0 4.017-.697 5.316-2.093 1.299-1.395 1.948-3.199 1.948-5.412 0-2.148-.665-3.928-1.996-5.34-1.331-1.41-3.087-2.116-5.268-2.116-2.245 0-4.017.665-5.316 1.996-1.298 1.331-1.948 3.151-1.948 5.46 0 2.213.658 4.017 1.973 5.412Z"/></g><defs><clipPath id="a"><path fill="#fff" d="M0 0h282v60H0z"/></clipPath></defs></svg>